<svg width="640" height="480" viewBox="0 0 640 480" fill="none" xmlns="http://www.w3.org/2000/svg">
  <rect width="640" height="480" rx="36" fill="#130812"/>
  <rect width="640" height="480" rx="36" fill="url(#bg)"/>
  <path d="M98 356C160 276 206 222 280 192C340 167 402 165 542 210" stroke="#FB7185" stroke-opacity="0.55" stroke-width="22" stroke-linecap="round"/>
  <path d="M104 402C177 314 225 272 290 246C353 221 407 220 540 264" stroke="#F5D0FE" stroke-opacity="0.24" stroke-width="6" stroke-linecap="round"/>
  <rect x="110" y="86" width="420" height="160" rx="26" fill="#090511" fill-opacity="0.42"/>
  <path d="M154 130H486" stroke="#F5F3FF" stroke-opacity="0.2" stroke-width="6" stroke-linecap="round"/>
  <path d="M154 174H418" stroke="#F5F3FF" stroke-opacity="0.42" stroke-width="12" stroke-linecap="round"/>
  <path d="M154 214H350" stroke="#F5F3FF" stroke-opacity="0.24" stroke-width="10" stroke-linecap="round"/>
  <circle cx="488" cy="348" r="62" fill="#F472B6" fill-opacity="0.26"/>
  <circle cx="488" cy="348" r="24" fill="#FDF2F8"/>
  <defs>
    <linearGradient id="bg" x1="84" y1="42" x2="564" y2="430" gradientUnits="userSpaceOnUse">
      <stop stop-color="#581C87"/>
      <stop offset="0.46" stop-color="#BE185D"/>
      <stop offset="1" stop-color="#111827"/>
    </linearGradient>
  </defs>
</svg>
